<svg xmlns="http://www.w3.org/2000/svg" viewBox="0 0 800 520"><defs><style>.cls-1,.cls-14{fill:#fff;}.cls-2,.cls-6{fill:none;stroke-miterlimit:10;}.cls-2{stroke:#e6e6e6;}.cls-3{fill:#52b9e2;}.cls-14,.cls-4{font-size:18.88px;}.cls-10,.cls-11,.cls-12,.cls-4,.cls-8,.cls-9{fill:#303030;}.cls-10,.cls-11,.cls-12,.cls-14,.cls-4,.cls-8,.cls-9{font-family:ArialMT, Arial;}.cls-5{fill:#ea004d;}.cls-6{stroke:#b3b3b3;stroke-width:2px;}.cls-7{fill:#b3b3b3;}.cls-8{font-size:16.18px;}.cls-9{font-size:16.18px;}.cls-10{font-size:16.18px;}.cls-11{font-size:16.18px;}.cls-12{font-size:16.18px;}.cls-13{letter-spacing:-0.06em;}.cls-15{letter-spacing:-0.02em;}</style></defs><title>5</title><g id="Layer_3" data-name="Layer 3"><rect class="cls-1" width="800" height="520"/><rect class="cls-2" x="436.6" y="50.5" width="344.5" height="421.68" rx="5"/><path class="cls-3" d="M51.4,207.8s-6.8-1.4-8.1-5.4S48.4,182,48.4,182l10.3-4.9L64.4,188V178H68v10l-5.1,19.8Z"/><path class="cls-3" d="M81.1,207.8s6.7-1.4,8.1-5.4S84,182,84,182l-10.3-4.9L68,188V178H64.4v10l5.2,19.8Z"/><circle class="cls-3" cx="66.1" cy="165.6" r="9.9"/><path class="cls-3" d="M53.1,210.6a.5.5,0,0,1-.5-.5l-1.8-18.3c0-.2,0-.3.1-.4l.4-.2H81.1l.4.2c.1.1.1.2.1.4l-2.1,18.3a.5.5,0,0,1-.5.5Z"/><path class="cls-1" d="M81.1,191.7,79,210.1H53.1l-1.8-18.4H81.1m0-1H51.3a1.2,1.2,0,0,0-.8.4,1,1,0,0,0-.2.7l1.8,18.4a1,1,0,0,0,1,.9H79a1,1,0,0,0,1-.9l2.1-18.4a1.1,1.1,0,0,0-.3-.7.8.8,0,0,0-.7-.4Z"/><text class="cls-4" transform="translate(18.9 232.7)">cliente web</text><path class="cls-3" d="M51.4,319.3s-6.8-1.4-8.1-5.4,5.1-20.4,5.1-20.4l10.3-4.8,5.7,10.8v-10H68v10l-5.1,19.8Z"/><path class="cls-3" d="M81.1,319.3s6.7-1.4,8.1-5.4S84,293.5,84,293.5l-10.3-4.8L68,299.5v-10H64.4v10l5.2,19.8Z"/><circle class="cls-3" cx="66.1" cy="277.1" r="9.9"/><path class="cls-3" d="M53.1,322.1a.5.5,0,0,1-.5-.4l-1.8-18.4a.6.6,0,0,1,.1-.4H81.5a.6.6,0,0,1,.1.4l-2.1,18.4a.5.5,0,0,1-.5.4Z"/><path class="cls-1" d="M81.1,303.3,79,321.6H53.1l-1.8-18.3H81.1m0-1H51.3a1.1,1.1,0,0,0-.8.3,1.1,1.1,0,0,0-.2.8l1.8,18.3a1,1,0,0,0,1,.9H79a1,1,0,0,0,1-.9l2.1-18.3a1.1,1.1,0,0,0-.3-.8.8.8,0,0,0-.7-.3Z"/><text class="cls-4" transform="translate(18.9 344.3)">cliente web</text><path class="cls-3" d="M51.4,427.4s-6.8-1.4-8.1-5.4,5.1-20.4,5.1-20.4l10.3-4.9,5.7,10.9v-10H68v10l-5.1,19.8Z"/><path class="cls-3" d="M81.1,427.4s6.7-1.4,8.1-5.4S84,401.6,84,401.6l-10.3-4.9L68,407.6v-10H64.4v10l5.2,19.8Z"/><circle class="cls-3" cx="66.1" cy="385.2" r="9.9"/><path class="cls-3" d="M53.1,430.2a.5.5,0,0,1-.5-.5l-1.8-18.3c0-.2,0-.3.1-.4l.4-.2H81.1l.4.2c.1.1.1.2.1.4l-2.1,18.3a.5.5,0,0,1-.5.5Z"/><path class="cls-1" d="M81.1,411.3,79,429.7H53.1l-1.8-18.4H81.1m0-1H51.3a1.2,1.2,0,0,0-.8.4.8.8,0,0,0-.2.7l1.8,18.4a1,1,0,0,0,1,.9H79a1,1,0,0,0,1-.9l2.1-18.4a1.1,1.1,0,0,0-.3-.7.8.8,0,0,0-.7-.4Z"/><text class="cls-4" transform="translate(18.9 452.3)">cliente web</text><path class="cls-3" d="M51.4,99.8s-6.8-1.3-8.1-5.4S48.4,74,48.4,74l10.3-4.8,5.7,10.9v-10H68v10L62.9,99.8Z"/><path class="cls-3" d="M81.1,99.8s6.7-1.3,8.1-5.4S84,74,84,74L73.7,69.2,68,80.1v-10H64.4v10l5.2,19.7Z"/><circle class="cls-3" cx="66.1" cy="57.7" r="9.9"/><path class="cls-3" d="M53.1,102.6a.5.5,0,0,1-.5-.4L50.8,83.9c0-.2,0-.3.1-.4l.4-.2H81.1l.4.2c.1.1.1.2.1.4l-2.1,18.3c0,.3-.2.4-.5.4Z"/><path class="cls-1" d="M81.1,83.8,79,102.1H53.1L51.3,83.8H81.1m0-1H51.3a1.1,1.1,0,0,0-.8.3,1.1,1.1,0,0,0-.2.8l1.8,18.3a.9.9,0,0,0,1,.9H79a.9.9,0,0,0,1-.8l2.1-18.4a1.3,1.3,0,0,0-.3-.8.8.8,0,0,0-.7-.3Z"/><text class="cls-4" transform="translate(18.9 124.8)">cliente web</text><rect class="cls-5" x="517.5" y="215.4" width="182.4" height="91.21" rx="5"/><line class="cls-6" x1="140" y1="414.2" x2="213.8" y2="414.2"/><line class="cls-6" x1="455.8" y1="343.4" x2="508.2" y2="304.5"/><polygon class="cls-7" points="510 309.4 514 300.2 504.1 301.4 510 309.4"/><line class="cls-6" x1="360.5" y1="414.2" x2="407.3" y2="379.4"/><line class="cls-6" x1="288.5" y1="414.2" x2="353.3" y2="414.2"/><polygon class="cls-7" points="351.8 419.1 360.5 414.2 351.8 409.2 351.8 419.1"/><line class="cls-6" x1="140" y1="303.3" x2="213.8" y2="303.3"/><line class="cls-6" x1="462.7" y1="284.3" x2="506.9" y2="276.1"/><polygon class="cls-7" points="506.4 281.2 514 274.7 504.6 271.4 506.4 281.2"/><line class="cls-6" x1="360.5" y1="303.3" x2="407.3" y2="294.6"/><line class="cls-6" x1="288.5" y1="303.3" x2="353.3" y2="303.3"/><polygon class="cls-7" points="351.8 308.3 360.5 303.3 351.8 298.3 351.8 308.3"/><line class="cls-6" x1="140" y1="105.8" x2="213.8" y2="105.8"/><line class="cls-6" x1="455.8" y1="176.6" x2="508.2" y2="215.4"/><polygon class="cls-7" points="504.1 218.6 514 219.7 510 210.6 504.1 218.6"/><line class="cls-6" x1="360.5" y1="105.8" x2="407.3" y2="140.5"/><line class="cls-6" x1="288.5" y1="105.8" x2="353.3" y2="105.8"/><polygon class="cls-7" points="351.8 110.8 360.5 105.8 351.8 100.8 351.8 110.8"/><line class="cls-6" x1="140" y1="219.4" x2="213.8" y2="219.4"/><line class="cls-6" x1="462.7" y1="238.4" x2="506.9" y2="246.6"/><polygon class="cls-7" points="504.6 251.2 514 247.9 506.4 241.4 504.6 251.2"/><line class="cls-6" x1="360.5" y1="219.4" x2="407.3" y2="228.1"/><line class="cls-6" x1="288.5" y1="219.4" x2="353.3" y2="219.4"/><polygon class="cls-7" points="351.8 224.3 360.5 219.4 351.8 214.4 351.8 224.3"/><text class="cls-8" transform="translate(223.5 110.4)">request</text><text class="cls-9" transform="translate(410 148.4) rotate(36)">thread</text><text class="cls-10" transform="translate(416.8 379.1) rotate(-36.8)">thread</text><text class="cls-11" transform="translate(412.4 298.6) rotate(-10)">thread</text><text class="cls-12" transform="translate(410.7 234.2) rotate(10.5)">thread</text><text class="cls-8" transform="translate(223.5 223.7)">request</text><text class="cls-8" transform="translate(223.5 308)">request</text><text class="cls-8" transform="translate(223.5 419.2)">request</text><text class="cls-4" transform="translate(517.4 84.5)">Servidor de<tspan class="cls-13" x="96.5" y="0"> </tspan><tspan x="100.7" y="0">Aplicação</tspan></text><text class="cls-14" transform="translate(566 269)">SE<tspan class="cls-15" x="25.2" y="0">R</tspan><tspan x="38.5" y="0">VLE</tspan><tspan class="cls-15" x="74.2" y="0">T</tspan></text></g></svg>