<svg xmlns="http://www.w3.org/2000/svg" viewBox="0 0 800 520"><defs><style>.cls-1,.cls-6,.cls-8{fill:#fff;}.cls-2,.cls-3{fill:none;}.cls-2{stroke:#e6e6e6;}.cls-2,.cls-3,.cls-6{stroke-miterlimit:10;}.cls-3,.cls-6{stroke:#b3b3b3;stroke-width:2px;}.cls-4{fill:#b3b3b3;}.cls-5{fill:#ea004d;}.cls-6{stroke-dasharray:5;}.cls-7{font-size:14.45px;fill:#303030;}.cls-7,.cls-8{font-family:ArialMT, Arial;}.cls-8{font-size:13.25px;}</style></defs><title>5</title><g id="Layer_4" data-name="Layer 4"><rect class="cls-1" width="800" height="520"/><rect class="cls-2" x="113.3" y="48.1" width="550.7" height="437.9" rx="5"/><polyline class="cls-3" points="216.3 146.1 216.3 99.9 557.7 99.9 557.7 207.9"/><polygon class="cls-4" points="221.3 144.7 216.3 153.3 211.4 144.7 221.3 144.7"/><polygon class="cls-4" points="552.7 206.4 557.7 215.1 562.7 206.4 552.7 206.4"/><rect class="cls-5" x="148.3" y="153.3" width="136.1" height="71.17" rx="5"/><rect class="cls-5" x="148.3" y="276.9" width="136.1" height="71.17" rx="5"/><rect class="cls-5" x="489.6" y="215.1" width="136.1" height="71.17" rx="5"/><rect class="cls-5" x="319" y="368.2" width="136.1" height="71.17" rx="5"/><polygon class="cls-5" points="466.1 99.9 388.6 143.3 311.1 99.9 388.6 56.6 466.1 99.9"/><line class="cls-3" x1="388.6" y1="49.4" x2="388.6" y2="18.3"/><polygon class="cls-4" points="393.6 48 388.6 56.6 383.6 48 393.6 48"/><line class="cls-3" x1="388.6" y1="470.5" x2="388.6" y2="439.4"/><polygon class="cls-4" points="393.6 469 388.6 477.7 383.6 469 393.6 469"/><line class="cls-3" x1="216.3" y1="269.7" x2="216.3" y2="224.5"/><polygon class="cls-4" points="221.3 268.3 216.3 276.9 211.4 268.3 221.3 268.3"/><polyline class="cls-3" points="216.3 348.1 216.3 403.8 311.8 403.8"/><polygon class="cls-4" points="310.3 408.8 319 403.8 310.3 398.8 310.3 408.8"/><polyline class="cls-3" points="455 403.8 557.7 403.8 557.7 293.4"/><polygon class="cls-4" points="562.7 294.9 557.7 286.3 552.7 294.9 562.7 294.9"/><rect class="cls-6" x="477.6" y="467.2" width="209.1" height="34.48" rx="5"/><text class="cls-7" transform="translate(497.8 489.3)">Controlado pelo Container</text><text class="cls-7" transform="translate(534.7 90.6)">Sim</text><text class="cls-7" transform="translate(213.5 90.6)">Não</text><text class="cls-8" transform="translate(341.7 401.4)">Chama método<tspan x="19.9" y="15.9">service()</tspan></text><text class="cls-8" transform="translate(505.4 250.7)">Localiza instância<tspan x="12.9" y="15.9">já inicializada</tspan></text><text class="cls-8" transform="translate(171.1 308.2)">Chama método<tspan x="32.4" y="15.9">init()</tspan></text><text class="cls-8" transform="translate(338.9 104.7)">Existe instância?</text><text class="cls-8" transform="translate(189.5 176.8)">Cria uma<tspan x="-8.5" y="15.9">instância do</tspan><tspan x="7.4" y="31.8">servlet</tspan></text><text class="cls-7" transform="translate(123.7 40.7)">Container</text></g></svg>