<svg id="Layer_1" data-name="Layer 1" xmlns="http://www.w3.org/2000/svg" viewBox="0 0 800 353.5"><defs><style>.cls-1,.cls-9{fill:#fff;}.cls-2{fill:#ea004d;}.cls-3{fill:#52b9e2;}.cls-4,.cls-7{fill:none;stroke-miterlimit:10;stroke-width:2px;}.cls-4{stroke:#b3b3b3;}.cls-5{fill:#b3b3b3;}.cls-6{fill:#e6e6e6;}.cls-7{stroke:#303030;}.cls-10,.cls-8{fill:#303030;}.cls-10,.cls-12,.cls-9{font-size:16.99px;}.cls-10,.cls-9{font-family:Arial-BoldMT, Arial;font-weight:700;}.cls-11{letter-spacing:-0.02em;}.cls-12{fill:#666;font-family:ArialMT, Arial;}</style></defs><title>5</title><rect class="cls-1" width="800" height="353.51"/><rect class="cls-2" x="32.7" y="50.1" width="144.4" height="60.86" rx="5"/><rect class="cls-3" x="307.3" y="232.7" width="186.8" height="82.09" rx="5"/><rect class="cls-2" x="622.9" y="50.1" width="144.4" height="60.86" rx="5"/><line class="cls-4" x1="177.1" y1="81.2" x2="300.1" y2="81.2"/><polygon class="cls-5" points="298.7 86.2 307.3 81.2 298.7 76.2 298.7 86.2"/><line class="cls-4" x1="356.8" y1="110.9" x2="356.8" y2="225.5"/><polygon class="cls-5" points="351.8 224 356.8 232.7 361.8 224 351.8 224"/><line class="cls-4" x1="443.2" y1="110.9" x2="443.2" y2="225.5"/><polygon class="cls-5" points="438.2 224 443.2 232.7 448.2 224 438.2 224"/><line class="cls-4" x1="494.1" y1="81.2" x2="617.2" y2="81.2"/><polygon class="cls-5" points="615.7 86.2 624.3 81.2 615.7 76.2 615.7 86.2"/><ellipse class="cls-6" cx="400.7" cy="81.2" rx="93.4" ry="42.5"/><path class="cls-7" d="M400.7,133.6a21.2,21.2,0,0,1,9.7,40.1"/><polygon class="cls-8" points="410.1 168.3 403.5 175.9 413.3 177.8 410.1 168.3"/><path class="cls-7" d="M400.7,176a21.2,21.2,0,0,1-21.2-21.2,21.4,21.4,0,0,1,10.2-18.2"/><polygon class="cls-8" points="390.4 142 396.4 134 386.5 132.8 390.4 142"/><text class="cls-9" transform="translate(68.8 88.1)">CLIENTE</text><text class="cls-9" transform="translate(659 88.1)">CLIENTE</text><text class="cls-9" transform="translate(364.6 269.3)">OUTROS<tspan x="-30.2" y="20.4">COMPONENTES</tspan></text><text class="cls-10" transform="translate(360.5 88.1)">SE<tspan class="cls-11" x="22.7" y="0">R</tspan><tspan x="34.6" y="0">VLET</tspan></text><text class="cls-12" transform="translate(200.4 71.1)">Requisição</text><text class="cls-12" transform="translate(523.6 71.1)">Resposta</text></svg>